<mxfile host="app.diagrams.net" modified="2020-10-27T08:15:11.236Z" agent="5.0 (X11)" etag="LKrtcHyAAC63dNAK5GIL" version="13.8.3" type="github">
  <diagram id="18MNWk-pP0sWtHQcujsn" name="Page-1">
    <mxGraphModel dx="1102" dy="585" grid="1" gridSize="10" guides="1" tooltips="1" connect="1" arrows="1" fold="1" page="1" pageScale="1" pageWidth="850" pageHeight="1100" math="0" shadow="0">
      <root>
        <mxCell id="0" />
        <mxCell id="1" parent="0" />
        <mxCell id="9irZJHgaeaXRHLg6WUTN-1" value="" style="outlineConnect=0;dashed=0;verticalLabelPosition=bottom;verticalAlign=top;align=center;html=1;shape=mxgraph.aws3.ec2;fillColor=#F58534;gradientColor=none;" vertex="1" parent="1">
          <mxGeometry x="360" y="50" width="76.5" height="93" as="geometry" />
        </mxCell>
        <mxCell id="9irZJHgaeaXRHLg6WUTN-4" value="" style="edgeStyle=segmentEdgeStyle;endArrow=classic;html=1;entryX=0.5;entryY=1;entryDx=0;entryDy=0;entryPerimeter=0;" edge="1" parent="1" target="9irZJHgaeaXRHLg6WUTN-1">
          <mxGeometry width="50" height="50" relative="1" as="geometry">
            <mxPoint x="250" y="230" as="sourcePoint" />
            <mxPoint x="400" y="180" as="targetPoint" />
          </mxGeometry>
        </mxCell>
        <mxCell id="9irZJHgaeaXRHLg6WUTN-6" value="VPC" style="points=[[0,0],[0.25,0],[0.5,0],[0.75,0],[1,0],[1,0.25],[1,0.5],[1,0.75],[1,1],[0.75,1],[0.5,1],[0.25,1],[0,1],[0,0.75],[0,0.5],[0,0.25]];outlineConnect=0;gradientColor=none;html=1;whiteSpace=wrap;fontSize=12;fontStyle=0;shape=mxgraph.aws4.group;grIcon=mxgraph.aws4.group_vpc;strokeColor=#248814;fillColor=none;verticalAlign=top;align=left;spacingLeft=30;fontColor=#AAB7B8;dashed=0;" vertex="1" parent="1">
          <mxGeometry x="105" y="10" width="640" height="490" as="geometry" />
        </mxCell>
        <mxCell id="9irZJHgaeaXRHLg6WUTN-7" value="" style="outlineConnect=0;dashed=0;verticalLabelPosition=bottom;verticalAlign=top;align=center;html=1;shape=mxgraph.aws3.virtual_private_cloud;fillColor=#F58534;gradientColor=none;" vertex="1" parent="1">
          <mxGeometry x="170" y="200" width="79.5" height="54" as="geometry" />
        </mxCell>
        <mxCell id="9irZJHgaeaXRHLg6WUTN-10" value="" style="pointerEvents=1;shadow=0;dashed=0;html=1;strokeColor=none;fillColor=#434445;aspect=fixed;labelPosition=center;verticalLabelPosition=bottom;verticalAlign=top;align=center;outlineConnect=0;shape=mxgraph.vvd.infrastructure;" vertex="1" parent="1">
          <mxGeometry x="290" y="260" width="204.64" height="198.5" as="geometry" />
        </mxCell>
        <mxCell id="9irZJHgaeaXRHLg6WUTN-11" value="" style="dashed=0;outlineConnect=0;html=1;align=center;labelPosition=center;verticalLabelPosition=bottom;verticalAlign=top;shape=mxgraph.weblogos.github" vertex="1" parent="1">
          <mxGeometry x="580" y="200" width="75" height="75" as="geometry" />
        </mxCell>
        <mxCell id="9irZJHgaeaXRHLg6WUTN-12" value="" style="shape=image;html=1;verticalAlign=top;verticalLabelPosition=bottom;labelBackgroundColor=#ffffff;imageAspect=0;aspect=fixed;image=https://cdn4.iconfinder.com/data/icons/logos-brands-5/24/jenkins-128.png;imageBackground=#ffffff;imageBorder=#000000;" vertex="1" parent="1">
          <mxGeometry x="452" y="40" width="128" height="128" as="geometry" />
        </mxCell>
      </root>
    </mxGraphModel>
  </diagram>
</mxfile>
